<svg xmlns="http://www.w3.org/2000/svg" viewBox="0 0 784 264.31"><defs><style>.cls-1,.cls-2{fill:#dadada;stroke-width:4px;}.cls-1{stroke:#b2b2b2;}.cls-1,.cls-2,.cls-54{stroke-miterlimit:10;}.cls-2{stroke:#afafaf;}.cls-24,.cls-3,.cls-37,.cls-49{font-size:12px;}.cls-12,.cls-14,.cls-15,.cls-25,.cls-3,.cls-34,.cls-45,.cls-8{fill:#1d71b8;}.cls-24,.cls-3,.cls-37,.cls-49,.cls-55{font-family:MyriadPro-Regular, Myriad Pro;}.cls-20,.cls-28,.cls-29,.cls-30,.cls-39,.cls-4,.cls-40,.cls-44,.cls-48,.cls-5{fill:#e6007e;}.cls-26,.cls-5,.cls-56{letter-spacing:-0.01em;}.cls-19,.cls-24,.cls-6{fill:#1d1d1b;}.cls-19,.cls-7{letter-spacing:2.79em;}.cls-8{letter-spacing:0em;}.cls-10,.cls-11,.cls-22,.cls-33,.cls-41,.cls-42,.cls-46,.cls-49,.cls-9{fill:#662483;}.cls-10{letter-spacing:0em;}.cls-11{letter-spacing:-0.01em;}.cls-13,.cls-16,.cls-17,.cls-18,.cls-26,.cls-35,.cls-36{fill:#ea5b0c;}.cls-14{letter-spacing:-0.09em;}.cls-15{letter-spacing:-0.08em;}.cls-16{letter-spacing:-0.01em;}.cls-17{letter-spacing:0em;}.cls-18{letter-spacing:-0.02em;}.cls-20{letter-spacing:-0.01em;}.cls-21{letter-spacing:-0.09em;}.cls-22{letter-spacing:0.02em;}.cls-23{letter-spacing:-0.09em;}.cls-25{letter-spacing:-0.07em;}.cls-27,.cls-30{letter-spacing:0em;}.cls-28{letter-spacing:-0.01em;}.cls-29{letter-spacing:0.01em;}.cls-31,.cls-37,.cls-52{fill:#010101;}.cls-32{letter-spacing:-0.09em;}.cls-33{letter-spacing:0em;}.cls-34{letter-spacing:-0.01em;}.cls-35{letter-spacing:0em;}.cls-36{letter-spacing:-0.03em;}.cls-38{letter-spacing:2.79em;}.cls-39{letter-spacing:0em;}.cls-40{letter-spacing:-0.01em;}.cls-41,.cls-50{letter-spacing:0em;}.cls-42{letter-spacing:-0.01em;}.cls-43{letter-spacing:2.79em;}.cls-44{letter-spacing:0.01em;}.cls-45{letter-spacing:-0.09em;}.cls-46{letter-spacing:0em;}.cls-47{fill:#36a9e1;}.cls-48{letter-spacing:-0.01em;}.cls-51{letter-spacing:-0.01em;}.cls-52{letter-spacing:2.79em;}.cls-53{letter-spacing:-0.09em;}.cls-54{fill:none;stroke:#9d9d9c;}.cls-55{font-size:14px;fill:#575756;}.cls-57{letter-spacing:-0.01em;}.cls-58{letter-spacing:0em;}.cls-59{letter-spacing:-0.01em;}.cls-60{fill:#a3bde3;}.cls-61{fill:#7194cd;}.cls-62{opacity:0.06;}.cls-63{fill:#fff;}</style></defs><title>spriteSVGProcess</title><g id="Capa_2" data-name="Capa 2"><rect class="cls-1" x="2" y="22.31" width="315" height="60"/><rect class="cls-2" x="2" y="202.31" width="315" height="60"/><rect class="cls-2" x="2" y="112.31" width="315" height="60"/><rect class="cls-2" x="467.98" y="22.31" width="314.02" height="240"/><text class="cls-3" transform="translate(472 74.14)">&lt;<tspan class="cls-4" x="7.15" y="0">s</tspan><tspan class="cls-5" x="11.9" y="0">v</tspan><tspan class="cls-4" x="17.56" y="0">g</tspan><tspan x="24.26" y="0">&gt;</tspan><tspan class="cls-6"><tspan class="cls-7" x="0" y="14.4">	</tspan><tspan class="cls-8" x="36" y="14.4">&lt;</tspan><tspan class="cls-4" x="43.15" y="14.4">symbol</tspan><tspan x="79.81" y="14.4"> </tspan><tspan class="cls-9" x="82.36" y="14.4">view</tspan><tspan class="cls-10" x="105.78" y="14.4">B</tspan><tspan class="cls-11" x="112.33" y="14.4">o</tspan><tspan class="cls-9" x="118.75" y="14.4">x</tspan><tspan class="cls-12" x="124.31" y="14.4">=”</tspan><tspan class="cls-13" x="135.71" y="14.4">0 0 130 130</tspan><tspan class="cls-14" x="192.59" y="14.4">”</tspan><tspan x="195.8" y="14.4"> </tspan><tspan class="cls-9" x="198.35" y="14.4">id</tspan><tspan class="cls-12" x="207.92" y="14.4">=</tspan><tspan class="cls-15" x="215.08" y="14.4">”</tspan><tspan class="cls-13" x="218.4" y="14.4">ci</tspan><tspan class="cls-16" x="226.58" y="14.4">r</tspan><tspan class="cls-17" x="230.39" y="14.4">cl</tspan><tspan class="cls-18" x="238.59" y="14.4">e</tspan><tspan class="cls-12" x="244.31" y="14.4">”&gt;</tspan></tspan><tspan class="cls-19"><tspan x="0" y="28.8" xml:space="preserve">		</tspan></tspan></text><text class="cls-3" transform="translate(544 102.94) scale(1.01 1)">&lt;<tspan class="cls-4" x="7.15" y="0">ci</tspan><tspan class="cls-20" x="15.34" y="0">r</tspan><tspan class="cls-4" x="19.14" y="0">cle </tspan><tspan class="cls-9" x="35.9" y="0">cx</tspan><tspan x="46.84" y="0">=”</tspan><tspan class="cls-13" x="58.24" y="0">65</tspan><tspan class="cls-21" x="70.55" y="0">”</tspan><tspan x="73.76" y="0"> </tspan><tspan class="cls-22" x="76.31" y="0">c</tspan><tspan class="cls-9" x="81.9" y="0">y</tspan><tspan x="87.55" y="0">=”</tspan><tspan class="cls-13" x="98.95" y="0">65</tspan><tspan class="cls-23" x="111.26" y="0">”</tspan><tspan x="114.48" y="0"> </tspan><tspan class="cls-9" x="117.02" y="0">r</tspan><tspan x="120.95" y="0">=”</tspan><tspan class="cls-13" x="132.35" y="0">65</tspan><tspan x="144.66" y="0">”/&gt;</tspan></text><text class="cls-24" transform="translate(472 117.34)"><tspan class="cls-7">	</tspan><tspan class="cls-8" x="36" y="0">&lt;/</tspan><tspan class="cls-4" x="47.27" y="0">symbol</tspan><tspan class="cls-12" x="83.93" y="0">&gt;</tspan><tspan class="cls-7" x="0" y="14.4">	</tspan><tspan class="cls-8" x="36" y="14.4">&lt;</tspan><tspan class="cls-4" x="43.15" y="14.4">symbol </tspan><tspan class="cls-9" x="82.36" y="14.4">view</tspan><tspan class="cls-10" x="105.78" y="14.4">B</tspan><tspan class="cls-11" x="112.33" y="14.4">o</tspan><tspan class="cls-9" x="118.75" y="14.4">x</tspan><tspan class="cls-12" x="124.31" y="14.4">=”</tspan><tspan class="cls-13" x="135.71" y="14.4">0 0 130 130</tspan><tspan class="cls-14" x="192.59" y="14.4">”</tspan><tspan class="cls-12" x="195.8" y="14.4"> </tspan><tspan class="cls-9" x="198.35" y="14.4">id</tspan><tspan class="cls-12" x="207.92" y="14.4">=</tspan><tspan class="cls-25" x="215.08" y="14.4">”</tspan><tspan class="cls-13" x="218.46" y="14.4">squa</tspan><tspan class="cls-26" x="242.36" y="14.4">r</tspan><tspan class="cls-18" x="246.17" y="14.4">e</tspan><tspan class="cls-12" x="251.88" y="14.4">”&gt;</tspan><tspan class="cls-7" x="0" y="28.8" xml:space="preserve">		</tspan></text><text class="cls-3" transform="translate(544 146.14)"><tspan class="cls-27">&lt;</tspan><tspan class="cls-28" x="7.16" y="0">r</tspan><tspan class="cls-4" x="10.96" y="0">e</tspan><tspan class="cls-29" x="16.98" y="0">c</tspan><tspan class="cls-30" x="22.52" y="0">t</tspan><tspan class="cls-31" x="26.5" y="0"> </tspan><tspan class="cls-9" x="29.04" y="0">width</tspan><tspan x="58.11" y="0">=”</tspan><tspan class="cls-13" x="69.52" y="0">130</tspan><tspan class="cls-32" x="88" y="0">”</tspan><tspan x="91.22" y="0"> </tspan><tspan class="cls-9" x="93.77" y="0">heig</tspan><tspan class="cls-33" x="115.97" y="0">h</tspan><tspan class="cls-9" x="122.59" y="0">t</tspan><tspan x="126.57" y="0">=”</tspan><tspan class="cls-13" x="137.98" y="0">130</tspan><tspan x="156.46" y="0">”/&gt;</tspan></text><text class="cls-24" transform="translate(472 160.54)"><tspan class="cls-7">	</tspan><tspan class="cls-8" x="36" y="0">&lt;/</tspan><tspan class="cls-4" x="47.27" y="0">symbol</tspan><tspan class="cls-12" x="83.93" y="0">&gt;</tspan><tspan class="cls-7" x="0" y="14.4">	</tspan><tspan class="cls-8" x="36" y="14.4">&lt;</tspan><tspan class="cls-4" x="43.15" y="14.4">symbol</tspan><tspan x="79.81" y="14.4"> </tspan><tspan class="cls-9" x="82.36" y="14.4">view</tspan><tspan class="cls-10" x="105.78" y="14.4">B</tspan><tspan class="cls-11" x="112.33" y="14.4">o</tspan><tspan class="cls-9" x="118.75" y="14.4">x</tspan><tspan class="cls-12" x="124.31" y="14.4">=”</tspan><tspan class="cls-13" x="135.71" y="14.4">0 0 130 130</tspan><tspan class="cls-14" x="192.59" y="14.4">”</tspan><tspan class="cls-12" x="195.8" y="14.4"> </tspan><tspan class="cls-9" x="198.35" y="14.4">id</tspan><tspan class="cls-12" x="207.92" y="14.4">=</tspan><tspan class="cls-34" x="215.08" y="14.4">”</tspan><tspan class="cls-13" x="219.19" y="14.4">t</tspan><tspan class="cls-35" x="223.16" y="14.4">r</tspan><tspan class="cls-13" x="227.14" y="14.4">iangl</tspan><tspan class="cls-36" x="251.93" y="14.4">e</tspan><tspan class="cls-12" x="257.64" y="14.4">”&gt;</tspan></text><text class="cls-37" transform="translate(472 189.34)"><tspan class="cls-38" xml:space="preserve">		</tspan><tspan class="cls-12" x="72" y="0">&lt;</tspan><tspan class="cls-39" x="79.15" y="0">pol</tspan><tspan class="cls-40" x="95.4" y="0">y</tspan><tspan class="cls-39" x="100.93" y="0">gon</tspan><tspan x="120.89" y="0"> </tspan><tspan class="cls-9" x="123.43" y="0">poi</tspan><tspan class="cls-33" x="139.66" y="0">n</tspan><tspan class="cls-9" x="146.27" y="0">ts</tspan><tspan class="cls-12" x="154.99" y="0">=”</tspan><tspan class="cls-13" x="166.39" y="0" xml:space="preserve">65 0 0 130 130 130  65 0</tspan><tspan class="cls-12" x="285.24" y="0">”/&gt;</tspan></text><text class="cls-24" transform="translate(472 203.74)"><tspan class="cls-7">	</tspan><tspan class="cls-8" x="36" y="0">&lt;/</tspan><tspan class="cls-4" x="47.27" y="0">symbol</tspan><tspan class="cls-12" x="83.93" y="0">&gt;</tspan><tspan class="cls-12" x="0" y="14.4">&lt;</tspan><tspan class="cls-4" x="7.15" y="14.4">s</tspan><tspan class="cls-5" x="11.9" y="14.4">v</tspan><tspan class="cls-4" x="17.56" y="14.4">g</tspan><tspan class="cls-12" x="24.26" y="14.4">&gt;</tspan></text></g><g id="Capa_1" data-name="Capa 1"><text class="cls-3" transform="translate(7 130.16)">&lt;<tspan class="cls-4" x="7.15" y="0">s</tspan><tspan class="cls-40" x="11.9" y="0">v</tspan><tspan class="cls-4" x="17.56" y="0">g</tspan><tspan class="cls-31" x="24.26" y="0"> </tspan><tspan class="cls-9" x="26.81" y="0">view</tspan><tspan class="cls-41" x="50.23" y="0">B</tspan><tspan class="cls-42" x="56.78" y="0">o</tspan><tspan class="cls-9" x="63.2" y="0">x</tspan><tspan x="68.76" y="0">=”</tspan><tspan class="cls-13" x="80.16" y="0">0 0 130 130</tspan><tspan x="137.04" y="0">”&gt;</tspan><tspan class="cls-31"><tspan class="cls-43" x="0" y="14.4">	</tspan><tspan class="cls-12" x="36" y="14.4">&lt;</tspan><tspan class="cls-40" x="43.15" y="14.4">r</tspan><tspan class="cls-4" x="46.96" y="14.4">e</tspan><tspan class="cls-44" x="52.97" y="14.4">c</tspan><tspan class="cls-4" x="58.5" y="14.4">t </tspan><tspan class="cls-9" x="65.01" y="14.4">width</tspan><tspan class="cls-12" x="94.05" y="14.4">=”</tspan><tspan class="cls-13" x="105.45" y="14.4">130</tspan><tspan class="cls-45" x="123.92" y="14.4">”</tspan><tspan x="127.14" y="14.4"> </tspan><tspan class="cls-9" x="129.68" y="14.4">heig</tspan><tspan class="cls-33" x="151.87" y="14.4">h</tspan><tspan class="cls-9" x="158.48" y="14.4">t</tspan><tspan class="cls-12" x="162.45" y="14.4">=”</tspan><tspan class="cls-13" x="173.85" y="14.4">130</tspan><tspan class="cls-12" x="192.32" y="14.4">”/&gt;</tspan></tspan><tspan x="0" y="28.8">&lt;/</tspan><tspan class="cls-4" x="11.27" y="28.8">s</tspan><tspan class="cls-40" x="16.02" y="28.8">v</tspan><tspan class="cls-4" x="21.67" y="28.8">g</tspan><tspan x="28.38" y="28.8">&gt;</tspan></text><text class="cls-3" transform="translate(7 220.37)">&lt;<tspan class="cls-4" x="7.15" y="0">s</tspan><tspan class="cls-40" x="11.9" y="0">v</tspan><tspan class="cls-4" x="17.56" y="0">g</tspan><tspan class="cls-31" x="24.26" y="0"> </tspan><tspan class="cls-9" x="26.81" y="0">view</tspan><tspan class="cls-41" x="50.23" y="0">B</tspan><tspan class="cls-42" x="56.78" y="0">o</tspan><tspan class="cls-9" x="63.2" y="0">x</tspan><tspan x="68.76" y="0">=”</tspan><tspan class="cls-13" x="80.16" y="0">0 0 130 130</tspan><tspan x="137.04" y="0">”&gt;</tspan><tspan class="cls-31"><tspan class="cls-43" x="0" y="14.4">	</tspan><tspan class="cls-12" x="36" y="14.4">&lt;</tspan><tspan class="cls-4" x="43.15" y="14.4">pol</tspan><tspan class="cls-40" x="59.4" y="14.4">y</tspan><tspan class="cls-4" x="64.93" y="14.4">gon</tspan><tspan x="84.89" y="14.4"> </tspan><tspan class="cls-9" x="87.43" y="14.4">poi</tspan><tspan class="cls-46" x="103.66" y="14.4">n</tspan><tspan class="cls-9" x="110.27" y="14.4">ts</tspan><tspan class="cls-12" x="118.99" y="14.4">=”</tspan><tspan class="cls-13" x="130.39" y="14.4" xml:space="preserve">65 0 0 130 130 130  65 0</tspan><tspan class="cls-12" x="249.23" y="14.4">”/&gt;</tspan></tspan><tspan x="0" y="28.8">&lt;/</tspan><tspan class="cls-4" x="11.27" y="28.8">s</tspan><tspan class="cls-40" x="16.02" y="28.8">v</tspan><tspan class="cls-4" x="21.67" y="28.8">g</tspan><tspan class="cls-47" x="28.38" y="28.8">&gt;</tspan></text><text class="cls-3" transform="translate(7 39.89) scale(1.01 1)">&lt;<tspan class="cls-4" x="7.15" y="0">s</tspan><tspan class="cls-48" x="11.9" y="0">v</tspan><tspan class="cls-4" x="17.56" y="0">g </tspan></text><text class="cls-49" transform="translate(34.15 39.89)">view<tspan class="cls-50" x="23.42" y="0">B</tspan><tspan class="cls-51" x="29.97" y="0">o</tspan><tspan x="36.4" y="0">x</tspan><tspan class="cls-12" x="41.95" y="0">=”</tspan><tspan class="cls-13" x="53.35" y="0">0 0 130 130</tspan><tspan class="cls-12" x="110.23" y="0">”</tspan></text><text class="cls-3" transform="translate(148.53 39.89) scale(1.01 1)">&gt;<tspan class="cls-52" x="-139.72" y="14.4">	</tspan><tspan x="-103.72" y="14.4">&lt;</tspan><tspan class="cls-4" x="-96.57" y="14.4">ci</tspan><tspan class="cls-48" x="-88.39" y="14.4">r</tspan><tspan class="cls-4" x="-84.58" y="14.4">cle </tspan><tspan class="cls-9" x="-67.82" y="14.4">cx</tspan><tspan x="-56.89" y="14.4">=”</tspan><tspan class="cls-13" x="-45.49" y="14.4">65</tspan><tspan class="cls-53" x="-33.18" y="14.4">”</tspan><tspan class="cls-31" x="-29.96" y="14.4"> </tspan><tspan class="cls-22" x="-27.42" y="14.4">c</tspan><tspan class="cls-9" x="-21.83" y="14.4">y</tspan><tspan x="-16.17" y="14.4">=”</tspan><tspan class="cls-13" x="-4.77" y="14.4">65</tspan><tspan class="cls-53" x="7.54" y="14.4">”</tspan><tspan x="10.75" y="14.4"> </tspan><tspan class="cls-9" x="13.3" y="14.4">r</tspan><tspan x="17.22" y="14.4">=”</tspan><tspan class="cls-13" x="28.62" y="14.4">65</tspan><tspan x="40.93" y="14.4">”/&gt;</tspan><tspan x="-139.72" y="28.8">&lt;/</tspan><tspan class="cls-4" x="-128.46" y="28.8">s</tspan><tspan class="cls-48" x="-123.7" y="28.8">v</tspan><tspan class="cls-4" x="-118.05" y="28.8">g</tspan><tspan x="-111.35" y="28.8">&gt;</tspan></text><line class="cls-54" x1="326.5" y1="52.81" x2="361" y2="121.31"/><line class="cls-54" x1="326.5" y1="232.81" x2="361" y2="163.31"/><line class="cls-54" x1="326.5" y1="142.81" x2="360.5" y2="142.81"/><line class="cls-54" x1="456.5" y1="142.81" x2="425.5" y2="142.81"/><line class="cls-54" x1="438.84" y1="152.81" x2="456.16" y2="142.81"/><line class="cls-54" x1="438.84" y1="132.81" x2="456.16" y2="142.81"/><text class="cls-55" transform="translate(2 11.72)">ci<tspan class="cls-56" x="9.55" y="0">r</tspan><tspan x="13.99" y="0">cl</tspan><tspan class="cls-57" x="23.56" y="0">e</tspan><tspan x="30.41" y="0">.s</tspan><tspan class="cls-56" x="38.85" y="0">v</tspan><tspan x="45.44" y="0">g</tspan></text><text class="cls-55" transform="translate(2 101.72)">squa<tspan class="cls-56" x="27.89" y="0">r</tspan><tspan class="cls-57" x="32.33" y="0">e</tspan><tspan x="39.17" y="0">.s</tspan><tspan class="cls-56" x="47.61" y="0">v</tspan><tspan x="54.21" y="0">g</tspan></text><text class="cls-55" transform="translate(2 191.72)">t<tspan class="cls-58" x="4.63" y="0">r</tspan><tspan x="9.27" y="0">iangl</tspan><tspan class="cls-59" x="38.19" y="0">e</tspan><tspan x="45.04" y="0">.s</tspan><tspan class="cls-56" x="53.48" y="0">v</tspan><tspan x="60.07" y="0">g</tspan></text><polygon class="cls-60" points="393.08 111.17 366.09 126.76 366.09 157.94 393.08 173.52 420.08 157.94 420.08 126.76 393.08 111.17"/><polygon class="cls-61" points="393.04 127 379.66 134.72 379.66 150.17 393.04 157.89 406.42 150.17 406.42 134.72 393.04 127"/><g class="cls-62"><polygon class="cls-63" points="393.05 111.09 366 126.78 393.05 141.5 420.09 126.87 393.05 111.09"/></g><g class="cls-62"><polygon class="cls-63" points="393.05 143.52 366 157.87 393.05 173.46 420 157.77 393.05 143.52"/></g></g></svg>